<?xml version="1.0" encoding="UTF-8" standalone="no"?>
<svg width="20px" height="19px" viewBox="0 0 20 19" version="1.1" xmlns="http://www.w3.org/2000/svg" xmlns:xlink="http://www.w3.org/1999/xlink" xmlns:sketch="http://www.bohemiancoding.com/sketch/ns">
    <!-- Generator: sketchtool 3.4 (375) - http://www.bohemiancoding.com/sketch -->
    <title>ic_card_travel_24px copy</title>
    <desc>Created with sketchtool.</desc>
    <defs></defs>
    <g id="Page-1" stroke="none" stroke-width="1" fill="none" fill-rule="evenodd" sketch:type="MSPage">
        <g id="Icons" sketch:type="MSArtboardGroup" transform="translate(-26.000000, -26.000000)">
            <g id="ic_card_travel_24px-copy" sketch:type="MSLayerGroup" transform="translate(24.000000, 24.000000)">
                <path d="M0,0 L24,0 L24,24 L0,24 L0,0 Z" id="Shape" sketch:type="MSShapeGroup"></path>
                <path d="M20,6 L17,6 L17,4 C17,2.89 16.11,2 15,2 L9,2 C7.89,2 7,2.89 7,4 L7,6 L4,6 C2.89,6 2,6.89 2,8 L2,19 C2,20.11 2.89,21 4,21 L20,21 C21.11,21 22,20.11 22,19 L22,8 C22,6.89 21.11,6 20,6 L20,6 Z M9,4 L15,4 L15,6 L9,6 L9,4 L9,4 Z M20,19 L4,19 L4,17 L20,17 L20,19 L20,19 Z M4,17 L4,8 L7,8 L9,8 L15,8 L17,8 L20,8 L20,17 L4,17 Z" id="Shape" fill="#000000" sketch:type="MSShapeGroup"></path>
            </g>
        </g>
    </g>
</svg>