<?xml version="1.0" encoding="UTF-8" standalone="no"?>
<svg width="20px" height="11px" viewBox="0 0 20 11" version="1.1" xmlns="http://www.w3.org/2000/svg" xmlns:xlink="http://www.w3.org/1999/xlink" xmlns:sketch="http://www.bohemiancoding.com/sketch/ns">
    <!-- Generator: sketchtool 3.4 (375) - http://www.bohemiancoding.com/sketch -->
    <title>ic_attachment_24px copy</title>
    <desc>Created with sketchtool.</desc>
    <defs></defs>
    <g id="Page-1" stroke="none" stroke-width="1" fill="none" fill-rule="evenodd" sketch:type="MSPage">
        <g id="Icons" sketch:type="MSArtboardGroup" transform="translate(-122.000000, -55.000000)">
            <g id="ic_attachment_24px-copy" sketch:type="MSLayerGroup" transform="translate(120.000000, 48.000000)">
                <path d="M7.5,18 C4.46,18 2,15.54 2,12.5 C2,9.46 4.46,7 7.5,7 L18,7 C20.21,7 22,8.79 22,11 C22,13.21 20.21,15 18,15 L9.5,15 C8.12,15 7,13.88 7,12.5 C7,11.12 8.12,10 9.5,10 L17,10 L17,11.5 L9.5,11.5 C8.95,11.5 8.5,11.95 8.5,12.5 C8.5,13.05 8.95,13.5 9.5,13.5 L18,13.5 C19.38,13.5 20.5,12.38 20.5,11 C20.5,9.62 19.38,8.5 18,8.5 L7.5,8.5 C5.29,8.5 3.5,10.29 3.5,12.5 C3.5,14.71 5.29,16.5 7.5,16.5 L17,16.5 L17,18 L7.5,18 L7.5,18 Z" id="Shape" fill="#000000" sketch:type="MSShapeGroup"></path>
                <path d="M0,0 L24,0 L24,24 L0,24 L0,0 Z" id="Shape" sketch:type="MSShapeGroup"></path>
            </g>
        </g>
    </g>
</svg>