<?xml version="1.0" encoding="UTF-8" standalone="no"?>
<svg width="18px" height="18px" viewBox="0 0 18 18" version="1.1" xmlns="http://www.w3.org/2000/svg" xmlns:xlink="http://www.w3.org/1999/xlink" xmlns:sketch="http://www.bohemiancoding.com/sketch/ns">
    <!-- Generator: sketchtool 3.4 (375) - http://www.bohemiancoding.com/sketch -->
    <title>Shape + Oval 1 Copy 3</title>
    <desc>Created with sketchtool.</desc>
    <defs>
        <path id="path-1" d="M9,18 C13.9705627,18 18,13.9705627 18,9 C18,4.02943725 13.9705627,0 9,0 C4.02943725,0 0,4.02943725 0,9 C0,13.9705627 4.02943725,18 9,18 Z"></path>
    </defs>
    <g id="Page-1" stroke="none" stroke-width="1" fill="none" fill-rule="evenodd" sketch:type="MSPage">
        <g id="Icons" sketch:type="MSArtboardGroup" transform="translate(-51.000000, -3.000000)">
            <g id="Shape-+-Oval-1-Copy-3" sketch:type="MSLayerGroup" transform="translate(51.000000, 3.000000)">
                <path d="M9,16 L9,16 C12.8659932,16 16,12.8659932 16,9 C16,5.13400675 12.8659932,2 9,2 C5.13400675,2 2,5.13400675 2,9 C2,12.8659932 5.13400675,16 9,16 L9,16 Z M9,18 L9,18 C4.02943725,18 0,13.9705627 0,9 C0,4.02943725 4.02943725,0 9,0 C13.9705627,0 18,4.02943725 18,9 C18,13.9705627 13.9705627,18 9,18 L9,18 Z" id="Shape" fill="#000000" sketch:type="MSShapeGroup"></path>
                <g id="Oval-1-Copy-3">
                    <mask id="mask-2" sketch:name="Mask" fill="white">
                        <use xlink:href="#path-1"></use>
                    </mask>
                    <use id="Mask" sketch:type="MSShapeGroup" xlink:href="#path-1"></use>
                    <circle fill="#000000" sketch:type="MSShapeGroup" mask="url(#mask-2)" cx="15" cy="9" r="9"></circle>
                </g>
            </g>
        </g>
    </g>
</svg>