<?xml version="1.0" encoding="UTF-8" standalone="no"?>
<svg width="18px" height="14px" viewBox="0 0 18 14" version="1.1" xmlns="http://www.w3.org/2000/svg" xmlns:xlink="http://www.w3.org/1999/xlink" xmlns:sketch="http://www.bohemiancoding.com/sketch/ns">
    <!-- Generator: sketchtool 3.4 (375) - http://www.bohemiancoding.com/sketch -->
    <title>ic_reorder_24px copy</title>
    <desc>Created with sketchtool.</desc>
    <defs></defs>
    <g id="Page-1" stroke="none" stroke-width="1" fill="none" fill-rule="evenodd" sketch:type="MSPage">
        <g id="Icons" sketch:type="MSArtboardGroup" transform="translate(-51.000000, -29.000000)">
            <g id="ic_reorder_24px-copy" sketch:type="MSLayerGroup" transform="translate(48.000000, 24.000000)">
                <path d="M0,0 L24,0 L24,24 L0,24 L0,0 Z" id="Shape" sketch:type="MSShapeGroup"></path>
                <path d="M3,15 L21,15 L21,13 L3,13 L3,15 L3,15 Z M3,19 L21,19 L21,17 L3,17 L3,19 L3,19 Z M3,11 L21,11 L21,9 L3,9 L3,11 L3,11 Z M3,5 L3,7 L21,7 L21,5 L3,5 L3,5 Z" id="Shape" fill="#000000" sketch:type="MSShapeGroup"></path>
            </g>
        </g>
    </g>
</svg>