<?xml version="1.0" encoding="UTF-8" standalone="no"?>
<svg width="17px" height="16px" viewBox="0 0 17 16" version="1.1" xmlns="http://www.w3.org/2000/svg" xmlns:xlink="http://www.w3.org/1999/xlink" xmlns:sketch="http://www.bohemiancoding.com/sketch/ns">
    <!-- Generator: sketchtool 3.4 (375) - http://www.bohemiancoding.com/sketch -->
    <title>ic_favorite_border_black_24px</title>
    <desc>Created with sketchtool.</desc>
    <defs></defs>
    <g id="Page-1" stroke="none" stroke-width="1" fill="none" fill-rule="evenodd" sketch:type="MSPage">
        <g id="Region:-Empty" sketch:type="MSArtboardGroup" transform="translate(-1131.000000, -21.000000)">
            <g id="header-user" sketch:type="MSLayerGroup" transform="translate(0.000000, -1.000000)">
                <g id="ic_favorite_border_black_24px" transform="translate(1130.000000, 20.000000)" sketch:type="MSShapeGroup">
                    <g id="Group">
                        <path d="M0,0 L19,0 L19,20 L0,20 L0,0 Z" id="Shape"></path>
                        <path d="M13.0625,2.5 C11.685,2.5 10.3629167,3.175 9.5,4.24166667 C8.63708333,3.175 7.315,2.5 5.9375,2.5 C3.49916667,2.5 1.58333333,4.51666667 1.58333333,7.08333333 C1.58333333,10.2333333 4.275,12.8 8.35208333,16.7 L9.5,17.7916667 L10.6479167,16.6916667 C14.725,12.8 17.4166667,10.2333333 17.4166667,7.08333333 C17.4166667,4.51666667 15.5008333,2.5 13.0625,2.5 L13.0625,2.5 Z M9.57916667,15.4583333 L9.5,15.5416667 L9.42083333,15.4583333 C5.6525,11.8666667 3.16666667,9.49166667 3.16666667,7.08333333 C3.16666667,5.41666667 4.35416667,4.16666667 5.9375,4.16666667 C7.15666667,4.16666667 8.34416667,4.99166667 8.76375,6.13333333 L10.2441667,6.13333333 C10.6558333,4.99166667 11.8433333,4.16666667 13.0625,4.16666667 C14.6458333,4.16666667 15.8333333,5.41666667 15.8333333,7.08333333 C15.8333333,9.49166667 13.3475,11.8666667 9.57916667,15.4583333 L9.57916667,15.4583333 Z" id="Shape" fill="#666666"></path>
                    </g>
                </g>
            </g>
        </g>
    </g>
</svg>