<?xml version="1.0" encoding="UTF-8" standalone="no"?>
<svg width="18px" height="10px" viewBox="0 0 18 10" version="1.1" xmlns="http://www.w3.org/2000/svg" xmlns:xlink="http://www.w3.org/1999/xlink" xmlns:sketch="http://www.bohemiancoding.com/sketch/ns">
    <!-- Generator: sketchtool 3.4 (375) - http://www.bohemiancoding.com/sketch -->
    <title>ic_list_24px</title>
    <desc>Created with sketchtool.</desc>
    <defs></defs>
    <g id="Page-1" stroke="none" stroke-width="1" fill="none" fill-rule="evenodd" sketch:type="MSPage">
        <g id="Icons" sketch:type="MSArtboardGroup" transform="translate(-99.000000, -55.000000)">
            <g id="ic_list_24px" sketch:type="MSLayerGroup" transform="translate(96.000000, 48.000000)">
                <path d="M3,13 L5,13 L5,11 L3,11 L3,13 L3,13 Z M3,17 L5,17 L5,15 L3,15 L3,17 L3,17 Z M3,9 L5,9 L5,7 L3,7 L3,9 L3,9 Z M7,13 L21,13 L21,11 L7,11 L7,13 L7,13 Z M7,17 L21,17 L21,15 L7,15 L7,17 L7,17 Z M7,7 L7,9 L21,9 L21,7 L7,7 L7,7 Z" id="Shape" fill="#000000" sketch:type="MSShapeGroup"></path>
                <path d="M0,0 L24,0 L24,24 L0,24 L0,0 Z" id="Shape" sketch:type="MSShapeGroup"></path>
            </g>
        </g>
    </g>
</svg>