<?xml version="1.0" encoding="UTF-8" standalone="no"?>
<svg width="73px" height="73px" viewBox="0 0 73 73" version="1.1" xmlns="http://www.w3.org/2000/svg" xmlns:xlink="http://www.w3.org/1999/xlink" xmlns:sketch="http://www.bohemiancoding.com/sketch/ns">
    <!-- Generator: sketchtool 3.4 (375) - http://www.bohemiancoding.com/sketch -->
    <title>noun_207504_cc</title>
    <desc>Created with sketchtool.</desc>
    <defs></defs>
    <g id="Page-1" stroke="none" stroke-width="1" fill="none" fill-rule="evenodd" sketch:type="MSPage">
        <g id="Region:-Empty" sketch:type="MSArtboardGroup" transform="translate(-649.000000, -289.000000)" fill="#DDDDDD">
            <g id="noun_207504_cc" sketch:type="MSLayerGroup" transform="translate(649.000000, 289.000000)">
                <g id="Group" sketch:type="MSShapeGroup">
                    <g id="Shape">
                        <g transform="translate(39.541667, 39.541667)">
                            <path d="M16.7291667,33.4583333 C7.50379167,33.4583333 0,25.9545417 0,16.7291667 C0,7.50379167 7.50379167,0 16.7291667,0 C25.9545417,0 33.4583333,7.50379167 33.4583333,16.7291667 C33.4583333,25.9545417 25.9545417,33.4583333 16.7291667,33.4583333 L16.7291667,33.4583333 Z M16.7291667,3.04166667 C9.18279167,3.04166667 3.04166667,9.18279167 3.04166667,16.7291667 C3.04166667,24.2755417 9.18279167,30.4166667 16.7291667,30.4166667 C24.2755417,30.4166667 30.4166667,24.2755417 30.4166667,16.7291667 C30.4166667,9.18279167 24.2755417,3.04166667 16.7291667,3.04166667 L16.7291667,3.04166667 Z"></path>
                            <path d="M16.7291667,27.375 C16.33375,27.375 15.9383333,27.2229167 15.6645833,26.91875 C15.3604167,26.645 15.2083333,26.2495833 15.2083333,25.8541667 C15.2083333,25.4283333 15.3908333,25.0329167 15.6645833,24.7591667 C16.2120833,24.2116667 17.2158333,24.2116667 17.79375,24.7895833 C18.0979167,25.0633333 18.25,25.45875 18.25,25.8541667 C18.25,26.2495833 18.0979167,26.6145833 17.8241667,26.91875 C17.52,27.2229167 17.1245833,27.375 16.7291667,27.375 L16.7291667,27.375 Z"></path>
                            <path d="M16.7291667,21.2916667 L16.7291667,21.2916667 C15.886625,21.2916667 15.2083333,20.6072917 15.2083333,19.7708333 L15.211375,16.7291667 C15.211375,16.0082917 15.7193333,15.3877917 16.425,15.2417917 L16.7565417,15.1779167 C19.8499167,14.6060833 21.2916667,13.6479583 21.2916667,12.1666667 C21.2916667,10.5180833 19.199,9.125 16.726125,9.125 C14.3445,9.125 12.2944167,10.4146667 12.163625,12.0024167 C12.0936667,12.838875 11.3667083,13.4745833 10.521125,13.3894167 C9.68466667,13.3194583 9.06416667,12.583375 9.134125,11.7469167 C9.40179167,8.51970833 12.6685417,6.08333333 16.726125,6.08333333 C20.9205833,6.08333333 24.3333333,8.81170833 24.3333333,12.1666667 C24.3333333,15.0714583 22.2893333,17.0211667 18.2530417,17.9701667 L18.25,19.7708333 C18.25,20.613375 17.5686667,21.2916667 16.7291667,21.2916667 L16.7291667,21.2916667 Z"></path>
                        </g>
                        <g>
                            <path d="M34.9791667,69.9583333 C15.6919583,69.9583333 0,54.266375 0,34.9791667 C0,15.6919583 15.6919583,0 34.9791667,0 C54.266375,0 69.9583333,15.6919583 69.9583333,34.9791667 C69.9583333,36.2110417 69.888375,37.46725 69.7393333,38.81775 C69.6480833,39.6511667 68.8724583,40.2564583 68.063375,40.1652083 C67.2269167,40.0739583 66.6246667,39.3226667 66.7159167,38.48925 C66.840625,37.3334167 66.9166667,36.1654167 66.9166667,34.9791667 C66.9166667,17.3679167 52.5904167,3.04166667 34.9791667,3.04166667 C17.3679167,3.04166667 3.04166667,17.3679167 3.04166667,34.9791667 C3.04166667,52.5904167 17.3679167,66.9166667 34.9791667,66.9166667 C36.1654167,66.9166667 37.3334167,66.840625 38.48925,66.7159167 C39.3074583,66.63075 40.0739583,67.2269167 40.1652083,68.063375 C40.2564583,68.8967917 39.6542083,69.6480833 38.81775,69.7393333 C37.46725,69.888375 36.2110417,69.9583333 34.9791667,69.9583333 L34.9791667,69.9583333 Z"></path>
                            <path d="M34.9791667,69.9583333 C23.8922917,69.9583333 15.2083333,54.594875 15.2083333,34.9791667 C15.2083333,15.3634583 23.8922917,0 34.9791667,0 C46.0660417,0 54.75,15.3634583 54.75,34.9791667 C54.75,35.8186667 54.0686667,36.5 53.2291667,36.5 C52.3896667,36.5 51.7083333,35.8186667 51.7083333,34.9791667 C51.7083333,17.6690417 44.046375,3.04166667 34.9791667,3.04166667 C25.9119583,3.04166667 18.25,17.6690417 18.25,34.9791667 C18.25,52.2892917 25.9119583,66.9166667 34.9791667,66.9166667 C35.8186667,66.9166667 36.5,67.598 36.5,68.4375 C36.5,69.277 35.8186667,69.9583333 34.9791667,69.9583333 L34.9791667,69.9583333 Z"></path>
                            <path d="M34.9791667,69.9583333 C34.1396667,69.9583333 33.4583333,69.277 33.4583333,68.4375 L33.4583333,1.52083333 C33.4583333,0.681333333 34.1396667,0 34.9791667,0 C35.8186667,0 36.5,0.681333333 36.5,1.52083333 L36.5,68.4375 C36.5,69.277 35.8186667,69.9583333 34.9791667,69.9583333 L34.9791667,69.9583333 Z"></path>
                            <path d="M68.4375,36.5 L1.52083333,36.5 C0.681333333,36.5 0,35.8186667 0,34.9791667 C0,34.1396667 0.681333333,33.4583333 1.52083333,33.4583333 L68.4375,33.4583333 C69.277,33.4583333 69.9583333,34.1396667 69.9583333,34.9791667 C69.9583333,35.8186667 69.277,36.5 68.4375,36.5 L68.4375,36.5 Z"></path>
                            <path d="M62.3541667,18.25 L7.60416667,18.25 C6.76466667,18.25 6.08333333,17.5686667 6.08333333,16.7291667 C6.08333333,15.8896667 6.76466667,15.2083333 7.60416667,15.2083333 L62.3541667,15.2083333 C63.1936667,15.2083333 63.875,15.8896667 63.875,16.7291667 C63.875,17.5686667 63.1936667,18.25 62.3541667,18.25 L62.3541667,18.25 Z"></path>
                            <path d="M34.9791667,54.75 L7.60416667,54.75 C6.76466667,54.75 6.08333333,54.0686667 6.08333333,53.2291667 C6.08333333,52.3896667 6.76466667,51.7083333 7.60416667,51.7083333 L34.9791667,51.7083333 C35.8186667,51.7083333 36.5,52.3896667 36.5,53.2291667 C36.5,54.0686667 35.8186667,54.75 34.9791667,54.75 L34.9791667,54.75 Z"></path>
                        </g>
                    </g>
                </g>
            </g>
        </g>
    </g>
</svg>