<?xml version="1.0" encoding="UTF-8" standalone="no"?>
<svg width="18px" height="20px" viewBox="0 0 18 20" version="1.1" xmlns="http://www.w3.org/2000/svg" xmlns:xlink="http://www.w3.org/1999/xlink" xmlns:sketch="http://www.bohemiancoding.com/sketch/ns">
    <!-- Generator: sketchtool 3.4 (375) - http://www.bohemiancoding.com/sketch -->
    <title>ic_receipt_24px</title>
    <desc>Created with sketchtool.</desc>
    <defs></defs>
    <g id="Page-1" stroke="none" stroke-width="1" fill="none" fill-rule="evenodd" sketch:type="MSPage">
        <g id="Icons" sketch:type="MSArtboardGroup" transform="translate(-75.000000, -26.000000)">
            <g id="ic_receipt_24px" sketch:type="MSLayerGroup" transform="translate(72.000000, 24.000000)">
                <path d="M18,17 L6,17 L6,15 L18,15 L18,17 L18,17 Z M18,13 L6,13 L6,11 L18,11 L18,13 L18,13 Z M18,9 L6,9 L6,7 L18,7 L18,9 L18,9 Z M3,22 L4.5,20.5 L6,22 L7.5,20.5 L9,22 L10.5,20.5 L12,22 L13.5,20.5 L15,22 L16.5,20.5 L18,22 L19.5,20.5 L21,22 L21,2 L19.5,3.5 L18,2 L16.5,3.5 L15,2 L13.5,3.5 L12,2 L10.5,3.5 L9,2 L7.5,3.5 L6,2 L4.5,3.5 L3,2 L3,22 L3,22 Z" id="Shape" fill="#000000" sketch:type="MSShapeGroup"></path>
                <path d="M0,0 L24,0 L24,24 L0,24 L0,0 Z" id="Shape" sketch:type="MSShapeGroup"></path>
            </g>
        </g>
    </g>
</svg>